<?xml version="1.0" standalone="no"?>
<!DOCTYPE svg PUBLIC "-//W3C//DTD SVG 20010904//EN"
 "http://www.w3.org/TR/2001/REC-SVG-20010904/DTD/svg10.dtd">
<svg version="1.0" xmlns="http://www.w3.org/2000/svg"
 width="1280.000000pt" height="640.000000pt" viewBox="0 0 1280.000000 640.000000"
 preserveAspectRatio="xMidYMid meet">
<g transform="translate(0.000000,640.000000) scale(0.100000,-0.100000)"
fill="#000000" stroke="none">
<path d="M4389 6097 c-50 -33 -83 -105 -74 -163 7 -52 52 -110 102 -130 46
-20 51 -35 18 -58 -15 -12 -49 -36 -73 -55 l-46 -34 -80 12 c-222 31 -391 -16
-522 -144 -64 -63 -117 -152 -112 -188 4 -31 54 -55 141 -69 100 -15 207 0
290 42 33 17 62 30 65 30 5 0 -2 -47 -23 -145 -19 -91 -19 -272 0 -353 43
-181 188 -389 360 -517 l67 -50 -5 -320 c-7 -392 -28 -602 -83 -837 l-26 -107
-105 -51 c-276 -131 -487 -332 -621 -589 -62 -118 -86 -179 -117 -301 -98
-384 -15 -805 223 -1125 59 -78 172 -195 245 -251 31 -25 57 -51 57 -58 0 -7
-12 -23 -26 -37 -45 -41 -84 -136 -84 -201 0 -67 17 -91 77 -107 51 -14 418
-14 484 0 62 13 99 46 99 87 0 17 6 32 13 34 6 3 46 1 87 -4 41 -5 129 -6 196
-3 l121 6 9 -32 c20 -71 89 -89 346 -89 300 0 349 31 303 187 -8 28 -31 75
-51 105 l-36 53 29 23 c83 68 165 144 217 203 289 322 400 786 292 1213 -101
395 -371 716 -749 891 l-108 50 -19 62 c-67 217 -130 736 -130 1075 l0 136 80
67 c132 110 243 264 296 411 51 139 53 326 7 500 -9 35 -15 66 -11 69 3 3 35
-9 72 -26 88 -41 182 -55 279 -42 81 11 142 36 151 60 12 30 -42 123 -111 192
-136 136 -326 188 -536 147 -66 -13 -70 -12 -95 9 -15 12 -48 36 -74 54 -27
17 -48 36 -48 42 0 5 23 23 50 40 66 40 94 93 87 162 -8 87 -74 147 -162 147
-129 0 -203 -128 -141 -243 15 -27 24 -52 21 -57 -2 -4 -26 -3 -52 2 -62 12
-234 12 -296 0 -59 -12 -65 -3 -37 53 41 81 15 182 -60 224 -52 29 -126 28
-171 -2z"/>
<path d="M7500 6098 c-49 -34 -72 -71 -77 -125 -6 -69 27 -128 92 -163 27 -14
50 -31 52 -37 3 -7 -20 -28 -49 -47 -29 -20 -63 -43 -75 -52 -20 -14 -33 -15
-98 -5 -151 22 -273 7 -389 -49 -153 -73 -289 -258 -228 -313 21 -20 135 -47
198 -47 66 0 144 18 213 50 35 17 66 28 69 25 3 -3 -2 -38 -11 -78 -39 -162
-39 -343 0 -462 54 -168 201 -366 354 -476 l61 -44 -6 -255 c-9 -363 -39 -668
-88 -900 -11 -52 -25 -100 -31 -107 -7 -7 -61 -36 -122 -66 -615 -303 -902
-1007 -674 -1654 47 -132 108 -245 196 -363 47 -62 188 -204 246 -247 26 -19
47 -40 47 -47 0 -7 -13 -24 -28 -39 -59 -56 -104 -194 -83 -249 21 -55 55 -63
288 -66 295 -5 358 11 372 94 6 34 10 39 31 36 14 -2 106 -4 206 -4 l181 -2 9
-30 c22 -72 100 -89 373 -84 218 4 258 13 281 68 22 52 -9 160 -67 236 l-28
37 45 36 c317 256 490 569 531 958 18 180 -14 417 -81 591 -89 231 -254 451
-449 598 -78 59 -285 173 -337 186 -16 4 -26 20 -38 61 -64 219 -117 640 -132
1047 l-7 175 74 64 c302 261 399 542 313 906 -10 41 -15 77 -12 80 3 3 34 -8
69 -25 109 -51 202 -61 323 -35 117 25 132 61 68 161 -108 167 -293 254 -512
240 -52 -3 -109 -10 -127 -15 -28 -8 -37 -5 -85 29 -29 22 -63 46 -75 55 -34
24 -28 40 24 66 155 80 101 309 -72 309 -57 0 -102 -24 -139 -73 -31 -42 -30
-140 2 -184 13 -18 21 -37 18 -42 -3 -5 -26 -5 -53 1 -62 12 -234 12 -296 0
-59 -12 -67 -1 -38 54 61 113 -17 244 -144 244 -38 0 -61 -6 -85 -22z"/>
<path d="M2951 6063 c-45 -22 -81 -79 -82 -129 0 -21 3 -81 7 -131 5 -79 4
-94 -9 -99 -9 -3 -58 8 -109 26 -157 53 -313 52 -423 -3 -132 -66 -245 -183
-311 -322 -79 -164 -101 -343 -69 -545 28 -170 60 -261 132 -367 41 -60 51
-108 80 -365 24 -224 24 -637 0 -793 -20 -127 -51 -253 -66 -268 -6 -6 -38 -5
-93 4 -116 19 -371 17 -478 -4 -314 -62 -565 -212 -876 -521 -77 -78 -162
-172 -189 -209 -59 -85 -108 -208 -179 -452 -80 -277 -120 -485 -142 -728 -4
-50 -12 -75 -28 -95 -26 -31 -72 -117 -92 -174 -11 -32 -11 -38 1 -38 21 0 26
-16 14 -47 l-10 -28 25 24 c22 21 26 22 32 7 3 -9 16 -16 28 -16 17 1 31 21
70 100 46 94 48 101 42 157 -10 92 57 445 139 734 51 178 61 209 72 209 5 0 8
-100 8 -222 0 -210 2 -229 27 -330 66 -257 179 -458 364 -645 80 -80 82 -93
17 -93 -61 0 -144 -40 -199 -94 -87 -88 -124 -235 -71 -284 38 -36 81 -42 289
-42 217 0 289 10 325 46 28 28 31 89 8 154 -8 24 -13 45 -10 48 2 3 48 -12
102 -32 161 -59 251 -77 421 -83 224 -8 412 24 588 102 32 14 59 23 61 21 3
-2 -3 -38 -12 -78 -18 -83 -12 -117 27 -142 42 -27 150 -38 345 -34 167 3 192
5 228 24 54 28 65 70 41 155 -38 139 -142 226 -288 244 -32 4 -58 10 -58 14 0
4 30 36 66 71 414 407 521 1038 263 1552 -119 236 -181 528 -219 1028 -14 184
-29 719 -21 768 l6 37 145 7 c256 12 439 57 497 124 50 57 65 112 70 259 4
106 1 149 -16 232 -60 291 -193 560 -366 739 -41 43 -75 85 -75 93 0 9 11 39
24 67 19 42 31 54 60 64 72 23 124 117 107 192 -24 106 -140 160 -240 111z"/>
<path d="M9692 6063 c-64 -31 -100 -114 -81 -186 13 -49 61 -103 105 -117 29
-10 41 -22 60 -64 13 -28 24 -58 24 -67 0 -8 -34 -50 -75 -93 -173 -179 -306
-448 -366 -739 -17 -83 -20 -126 -16 -232 5 -147 20 -202 70 -259 58 -67 241
-112 497 -124 l145 -7 6 -37 c8 -49 -7 -584 -21 -768 -38 -500 -100 -792 -219
-1028 -84 -166 -129 -342 -138 -537 -18 -376 129 -748 401 -1015 36 -35 66
-67 66 -71 0 -4 -26 -10 -57 -14 -147 -18 -251 -105 -289 -244 -24 -85 -13
-127 41 -155 36 -19 61 -21 228 -24 195 -4 303 7 345 34 39 25 45 59 27 142
-9 40 -15 76 -12 78 2 2 29 -7 61 -21 176 -78 364 -110 588 -102 170 6 260 24
421 83 54 20 100 35 102 32 3 -3 -2 -24 -10 -48 -23 -65 -20 -126 8 -154 36
-36 108 -46 325 -46 208 0 251 6 289 42 53 49 16 196 -71 284 -55 54 -138 94
-199 94 -65 0 -63 13 17 93 185 187 298 388 364 645 25 101 27 120 27 330 0
122 3 222 8 222 11 0 21 -31 72 -209 82 -289 149 -642 139 -734 -6 -56 -4 -63
42 -157 39 -79 53 -99 70 -100 12 0 25 7 28 16 6 15 10 14 32 -7 l25 -24 -10
28 c-12 31 -7 47 14 47 12 0 12 6 1 38 -20 57 -66 143 -92 174 -16 20 -24 45
-28 95 -22 243 -62 451 -142 728 -71 244 -120 367 -179 452 -27 37 -112 131
-189 209 -311 309 -562 459 -876 521 -107 21 -362 23 -478 4 -55 -9 -87 -10
-93 -4 -15 15 -46 141 -66 268 -24 156 -24 569 0 793 29 257 39 305 80 365 72
106 104 197 132 367 32 202 10 381 -69 545 -66 139 -179 256 -311 322 -110 55
-266 56 -423 3 -51 -18 -100 -29 -109 -26 -13 5 -14 20 -9 99 11 142 9 167
-18 207 -43 65 -140 90 -214 53z"/>
</g>
</svg>
